<svg xmlns="http://www.w3.org/2000/svg" viewBox="0 0 640 480"><defs><linearGradient id="a" x1="0" x2="1" y1="0" y2="1"><stop stop-color="#f7efe1"/><stop offset=".52" stop-color="#b9864d"/><stop offset="1" stop-color="#3b3027"/></linearGradient><filter id="s" x="-20%" y="-20%" width="140%" height="140%"><feDropShadow dx="0" dy="28" stdDeviation="22" flood-opacity=".25"/></filter></defs><rect width="640" height="480" rx="54" fill="#f5efe6"/><circle cx="514" cy="106" r="122" fill="#e5c7a1" opacity=".55"/><path d="M160 320h250c46 0 82-36 82-82v-25h-70v25c0 8-6 14-14 14H160z" fill="url(#a)" filter="url(#s)"/><path d="M126 320h88v70h-88z" fill="#8b6848"/><path d="M214 277h58v137h-58z" fill="#c49a68"/><path d="M392 164h134v48H392z" fill="#2f2a25"/><path d="M432 212h50v104h-50z" fill="#ab7947"/><path d="M493 316c32 21 42 55 28 81-10 18-39 19-51 2-19-27 4-59 23-83z" fill="#61a6ad" opacity=".85"/><path d="M96 390h212" stroke="#3b3027" stroke-width="16" stroke-linecap="round" opacity=".18"/></svg>
